<svg xmlns="http://www.w3.org/2000/svg" x="0px" y="0px" width="50" height="50" viewBox="0,0,256,256" style="fill:#000000;"> <g fill="#ffa439" fill-rule="nonzero" stroke="none" stroke-width="1" stroke-linecap="butt" stroke-linejoin="miter" stroke-miterlimit="10" stroke-dasharray="" stroke-dashoffset="0" font-family="none" font-weight="none" font-size="none" text-anchor="none" style="mix-blend-mode: normal"><g transform="scale(5.12,5.12)"><path d="M19,0c-10.37891,0 -19,7.49219 -19,16.90625c0,4.55469 2.04297,8.68359 5.3125,11.71875c-0.48047,1.41797 -1.5,2.54688 -2.59375,3.4375c-0.60937,0.49609 -1.20312,0.92188 -1.6875,1.34375c-0.24219,0.21094 -0.46484,0.39844 -0.65625,0.6875c-0.19141,0.28906 -0.38672,0.78906 -0.25,1.28125l0.125,0.375l0.34375,0.21875c1.03906,0.58984 2.30078,0.65625 3.625,0.5625c1.32422,-0.09375 2.75391,-0.39453 4.15625,-0.78125c1.93359,-0.53125 3.58984,-1.16406 4.96875,-1.71875c2.78906,6.46875 9.73828,10.78125 17.65625,10.78125c1.34375,0 2.69922,-0.18359 3.96875,-0.375c1.36719,0.60547 7.33203,3.15625 11.46875,3.15625c1.1875,0 2.10938,-0.21094 2.84375,-0.625l0.375,-0.21875l0.09375,-0.375c0.29297,-1.07031 -0.61328,-1.82031 -1.78125,-2.75c-1.17578,-0.93359 -2.73047,-2.17578 -3.40625,-3.90625c3.40625,-3.14062 5.34375,-7.40625 5.34375,-11.8125c0,-7.19531 -5.25,-13.69531 -12.8125,-16c-2.38672,-6.93359 -9.63672,-11.90625 -18.09375,-11.90625zM19,2c7.61719,0 13.97266,4.39844 16.125,10.40625c0.00781,0.02344 0.02344,0.03906 0.03125,0.0625c0.01172,0.03125 0.01953,0.0625 0.03125,0.09375c0.13672,0.39453 0.24609,0.78125 0.34375,1.1875c0.07031,0.28125 0.10547,0.55469 0.15625,0.84375c0.01172,0.07422 0.01953,0.14453 0.03125,0.21875c0.04297,0.26563 0.09766,0.54297 0.125,0.8125c0.00391,0.03906 -0.00391,0.08594 0,0.125c0.03125,0.37891 0.0625,0.76953 0.0625,1.15625c0,0.51172 -0.03516,1 -0.09375,1.5c-0.05859,0.50781 -0.13672,1.00781 -0.25,1.5c-0.22656,0.96875 -0.57031,1.89063 -1,2.78125c-0.42969,0.89063 -0.94922,1.73828 -1.5625,2.53125c-0.30469,0.39453 -0.65234,0.78906 -1,1.15625c-0.34766,0.36719 -0.70703,0.72656 -1.09375,1.0625c-0.37891,0.33203 -0.77344,0.66797 -1.1875,0.96875c-2.10156,1.51953 -4.64062,2.59766 -7.40625,3.09375c-1.10547,0.19922 -2.23437,0.3125 -3.40625,0.3125c-0.67578,0 -1.34766,-0.03516 -2,-0.09375c-0.03125,-0.00391 -0.0625,0.00391 -0.09375,0c-0.08594,-0.00781 -0.16797,-0.02344 -0.25,-0.03125c-0.23047,-0.02734 -0.46875,-0.05859 -0.6875,-0.09375c-0.29687,-0.04687 -0.57031,-0.09375 -0.84375,-0.15625l-0.3125,-0.09375l-0.3125,0.125c-1.28906,0.54297 -3.91797,1.64844 -6.5625,2.375c-1.32422,0.36328 -2.66016,0.63672 -3.78125,0.71875c-0.49609,0.03516 -0.70312,-0.11328 -1.09375,-0.15625c0.32031,-0.25 0.58984,-0.44922 1,-0.78125c1.33203,-1.08594 2.97266,-2.65625 3.5,-5l0.125,-0.59375l-0.4375,-0.40625c-3.19922,-2.73047 -5.15625,-6.53125 -5.15625,-10.71875c0,-8.1875 7.57813,-14.90625 17,-14.90625z"></path></g></g> </svg>

