<svg xmlns="http://www.w3.org/2000/svg" x="0px" y="0px" width="50" height="50" viewBox="0,0,256,256"
style="fill:#000000;">
<g fill="#ffa439" fill-rule="nonzero" stroke="none" stroke-width="1" stroke-linecap="butt" stroke-linejoin="miter" stroke-miterlimit="10" stroke-dasharray="" stroke-dashoffset="0" font-family="none" font-weight="none" font-size="none" text-anchor="none" style="mix-blend-mode: normal"><g transform="scale(5.12,5.12)"><path d="M25,2c-7.61028,0 -14.3666,3.70526 -18.55078,9.4082c-0.22434,0.28714 -0.27476,0.67357 -0.1316,1.00865c0.14316,0.33508 0.45724,0.56579 0.8198,0.60218c0.36256,0.03639 0.71623,-0.12729 0.92313,-0.42723c3.82182,-5.20906 9.97773,-8.5918 16.93945,-8.5918c11.60953,0 21,9.39047 21,21c0,11.60953 -9.39047,21 -21,21c-6.96173,0 -13.11655,-3.38256 -16.93945,-8.5918c-0.2069,-0.29995 -0.56056,-0.46363 -0.92313,-0.42723c-0.36256,0.03639 -0.67664,0.2671 -0.8198,0.60218c-0.14316,0.33508 -0.09274,0.72151 0.1316,1.00865c4.1851,5.70277 10.94051,9.4082 18.55078,9.4082c12.69047,0 23,-10.30953 23,-23c0,-12.69047 -10.30953,-23 -23,-23zM10.98047,15.99023c-0.2598,0.00774 -0.50638,0.11632 -0.6875,0.30274l-7.91211,7.91211c-0.24834,0.18944 -0.39391,0.48403 -0.39353,0.79638c0.00038,0.31235 0.14668,0.60658 0.39548,0.79541l7.91016,7.91016c0.25082,0.26124 0.62327,0.36648 0.97371,0.27512c0.35044,-0.09136 0.62411,-0.36503 0.71547,-0.71547c0.09136,-0.35044 -0.01388,-0.72289 -0.27512,-0.97371l-6.29297,-6.29297h21.58594c0.36064,0.0051 0.69608,-0.18438 0.87789,-0.49587c0.18181,-0.3115 0.18181,-0.69676 0,-1.00825c-0.18181,-0.3115 -0.51725,-0.50097 -0.87789,-0.49587h-21.58594l6.29297,-6.29297c0.29576,-0.28749 0.38469,-0.72707 0.22393,-1.10691c-0.16075,-0.37985 -0.53821,-0.62204 -0.9505,-0.60988z"></path></g></g>
</svg>